<svg xmlns="http://www.w3.org/2000/svg" viewBox="0 0 60 60" id="quill">
  <path fill="#f9d04b" d="M17.8,39.93a6.535,6.535,0,0,0,4.71-1.09,60.211,60.211,0,0,0,10.04-8.63.954.954,0,0,0,.01-1.29l-1.1-1.24a.426.426,0,0,1,.21-.69l3.64-.71a1.806,1.806,0,0,0,1.08-.68c5.29-7.03,7.86-13.48,12.9-18.15a48.5,48.5,0,0,1,6.43-5.14.6.6,0,0,0-.25-1.11A43.361,43.361,0,0,0,21.94,12.48a33.112,33.112,0,0,0-6.18,7.59,1.465,1.465,0,0,0-.09,1.32l1.17,2.81a.688.688,0,0,1-.52.95l-2.08.27a1.464,1.464,0,0,0-1.2,1.03,26.409,26.409,0,0,0-.97,6.59,6.912,6.912,0,0,0,1.9,4.88Z"></path>
  <path fill="#ffe7a3" d="M16.14,44C21.88,28.41,33.63,16.32,40.86,9.96a1.14,1.14,0,0,0-1.34-1.83C29.85,13.79,17.2,26.43,11.71,44L12,45h4Z"></path>
  <path fill="#415256" d="M24,52v5a2.006,2.006,0,0,1-2,2H6a2.006,2.006,0,0,1-2-2V52l1-1H23Z"></path>
  <path fill="#4c6268" d="M24,51.03V52H4v-.97a2.986,2.986,0,0,1,1.89-2.78L9,47V45a1,1,0,0,1,1-1h8a1,1,0,0,1,1,1v2l3.11,1.25A2.986,2.986,0,0,1,24,51.03Z"></path>
  <path fill="#373737" d="M55.574.206A44.585,44.585,0,0,0,21.259,11.748,34.132,34.132,0,0,0,14.9,19.555a2.471,2.471,0,0,0-.155,2.219l1.016,2.44-1.647.214a2.474,2.474,0,0,0-2.039,1.753,27.368,27.368,0,0,0-1.007,6.842,7.973,7.973,0,0,0,1.751,5.093C12.155,39.7,11.543,41.326,11,43H10a2,2,0,0,0-2,2v1.323l-2.485.994A3.981,3.981,0,0,0,3,51.031V57a3,3,0,0,0,3,3H7a1,1,0,0,0,0-2H6a1,1,0,0,1-1-1V53H23v4a1,1,0,0,1-1,1H11a1,1,0,0,0,0,2H22a3,3,0,0,0,3-3V51.031a3.981,3.981,0,0,0-2.515-3.714L20,46.323V45a2,2,0,0,0-2-2h-.386c.269-.68.541-1.357.833-2.022.113,0,.228.025.341.025a7.5,7.5,0,0,0,4.29-1.34,61.16,61.16,0,0,0,10.2-8.767,1.942,1.942,0,0,0,.031-2.639l-.429-.484,2.636-.514A2.787,2.787,0,0,0,37.188,26.2c2.134-2.835,3.8-5.521,5.4-8.119,2.384-3.853,4.443-7.18,7.376-9.9a47.047,47.047,0,0,1,6.3-5.036A1.616,1.616,0,0,0,56.952,1.4,1.558,1.558,0,0,0,55.574.206ZM18.629,47.929l3.114,1.246A1.983,1.983,0,0,1,23,51H5.005a1.983,1.983,0,0,1,1.252-1.825l3.114-1.246A1,1,0,0,0,10,47V45h8v2A1,1,0,0,0,18.629,47.929ZM13.11,43C18.769,26.26,31.04,14.252,40.021,8.995c.056-.031.116-.067.2.042s.031.128-.018.172C33.489,15.112,21.453,27.293,15.461,43Zm35.5-36.283c-3.132,2.9-5.36,6.5-7.717,10.312C39.308,19.59,37.669,22.236,35.586,25a.8.8,0,0,1-.468.295l-3.68.719a1.4,1.4,0,0,0-1.009.932,1.435,1.435,0,0,0,.283,1.393l1.105,1.186a59.191,59.191,0,0,1-9.879,8.49,5.484,5.484,0,0,1-2.565.931c6.236-13.007,16.276-23.074,22.148-28.241a2.139,2.139,0,0,0-2.506-3.442C30.922,12,20.255,22.032,13.78,35.955a5.966,5.966,0,0,1-.71-2.895A25.36,25.36,0,0,1,14,26.745a.467.467,0,0,1,.374-.333l2.091-.271a1.688,1.688,0,0,0,1.3-2.326L16.593,21a.473.473,0,0,1,.032-.433,32.161,32.161,0,0,1,5.994-7.357A42.543,42.543,0,0,1,54.244,2.1,53.883,53.883,0,0,0,48.609,6.717Z"></path>
</svg>
